<?xml version="1.0" standalone="no"?>
<!DOCTYPE svg PUBLIC "-//W3C//DTD SVG 20010904//EN"
 "http://www.w3.org/TR/2001/REC-SVG-20010904/DTD/svg10.dtd">
<svg version="1.0" xmlns="http://www.w3.org/2000/svg"
 width="700.000000pt" height="700.000000pt" viewBox="0 0 700.000000 700.000000"
 preserveAspectRatio="xMidYMid meet">
<metadata>
Created by potrace 1.14, written by Peter Selinger 2001-2017
</metadata>
<g transform="translate(0.000000,700.000000) scale(0.100000,-0.100000)"
fill="#000000" stroke="none">
<path d="M1170 6985 c-401 -68 -748 -301 -968 -650 -70 -113 -139 -284 -179
-448 -16 -67 -18 -215 -21 -2337 -2 -1607 0 -2288 8 -2345 83 -607 559 -1092
1169 -1191 128 -21 4514 -21 4642 0 601 98 1067 564 1165 1165 21 128 21 4514
0 4642 -75 459 -370 853 -786 1048 -97 45 -201 81 -310 107 -71 17 -199 19
-2360 20 -1815 2 -2300 -1 -2360 -11z m3487 -1616 c185 -25 332 -99 469 -234
125 -124 190 -241 231 -413 15 -66 18 -122 18 -387 -1 -342 -5 -377 -67 -499
-39 -78 -133 -175 -208 -215 -115 -62 -180 -71 -491 -71 l-279 0 -2 -847 -3
-848 -23 -50 c-52 -112 -155 -179 -277 -179 -95 0 -130 17 -324 163 -93 70
-170 121 -183 121 -15 0 -75 -52 -192 -168 -202 -199 -230 -216 -351 -216
-115 0 -139 15 -346 220 -96 96 -182 174 -191 174 -8 0 -90 -57 -183 -126
-202 -152 -235 -169 -330 -168 -120 1 -218 63 -272 172 l-28 57 -3 1335 c-3
1391 -1 1508 38 1649 71 256 246 431 501 500 41 12 109 25 150 30 113 13 2251
13 2346 0z"/>
<path d="M2261 5105 c-151 -33 -258 -110 -316 -229 -68 -137 -65 -65 -65
-1592 0 -1060 3 -1383 12 -1392 7 -7 21 -12 31 -12 11 0 96 57 188 126 94 70
190 134 219 145 66 25 145 24 217 -2 51 -19 78 -42 232 -195 111 -112 181
-174 194 -174 13 0 82 61 191 168 189 185 227 211 330 219 99 8 140 -11 337
-157 96 -71 184 -130 195 -130 12 0 27 6 33 13 8 10 11 451 13 1563 l3 1549
22 55 c13 30 23 56 23 58 0 1 -404 2 -897 1 -725 0 -910 -3 -962 -14z m1244
-839 c64 -27 91 -103 60 -170 -20 -42 -982 -1002 -1018 -1015 -67 -26 -137 3
-164 66 -33 81 -50 61 499 611 277 277 512 507 523 512 30 13 62 12 100 -4z
m-875 -99 c51 -27 90 -90 90 -145 0 -129 -143 -213 -255 -149 -113 64 -111
233 5 294 55 29 105 29 160 0z m855 -710 c142 -81 92 -299 -73 -314 -132 -12
-225 135 -159 252 29 51 88 85 147 85 28 0 60 -9 85 -23z"/>
<path d="M4465 5102 c-52 -24 -111 -90 -124 -139 -7 -25 -11 -235 -11 -601 l0
-564 283 4 c271 3 284 4 335 27 69 31 134 103 156 174 15 49 17 93 14 364 -4
291 -5 311 -27 370 -80 220 -275 367 -501 379 -69 4 -92 1 -125 -14z"/>
</g>
</svg>
